<?xml version="1.0" ?><svg id="Layer_1" style="enable-background:new 0 0 512 512;" version="1.1" viewBox="0 0 512 512" xml:space="preserve" xmlns="http://www.w3.org/2000/svg" xmlns:xlink="http://www.w3.org/1999/xlink"><g><path d="M348.612,348.623c0.797-0.857,0.313-0.706-1.271,0.111L305.29,370.87   c-7.019,3.721-21.691,11.456-34.751,4.145c-7.079-3.933-10.77-10.911-13.463-16.004l-44.633-84.396l-42.445-86.453   c-2.531-5.173-6-12.242-5.052-20.29c1.785-14.844,16.639-22.176,23.779-25.705l42.617-21.006c0.373-0.182,0.696-0.343,0.958-0.494   l-32.512-74.13c-3.519-8.007-6.878-14.885-12.343-17.96c-6.535-3.681-16.044-1.735-25.221,0.565   c-17.88,4.467-33.611,8.985-45.168,19.049C97.209,65.465,92.49,96.535,89.626,124.307c-2.803,27.177,0.353,59.81,9.368,96.981   c7.271,29.91,18.394,59.256,33.117,87.361c0.454,0.545,0.847,1.16,1.16,1.825c0.494,1.059,0.998,2.118,1.503,3.177   c0.575,1.069,1.16,2.138,1.755,3.197c0.363,0.666,0.625,1.351,0.797,2.047c14.098,28.428,31.302,54.667,51.218,78.093   c24.767,29.144,49.313,50.866,72.97,64.58c24.152,13.997,51.985,28.438,77.71,22.528c14.915-3.439,27.823-13.513,41.961-25.352   c7.251-6.071,14.4-12.626,15.258-20.068c0.736-6.232-2.854-12.999-7.271-20.552L348.612,348.623z" style="fill:none;"/><path d="M362.882,340.304c-1.271-2.178-3.63-6.252-8.36-8.148c-6.383-2.551-12.363,0.625-14.895,1.966l-42.032,22.125   c-6.404,3.378-14.32,6.948-19.019,4.336c-2.592-1.442-4.578-4.911-6.898-9.298l-44.785-84.699l-42.062-85.697   c-1.714-3.509-3.852-7.866-3.479-11.063c0.635-5.244,7.775-9.429,14.683-12.837l42.606-21.006   c2.592-1.271,8.662-4.266,10.336-10.891c1.25-4.941-0.645-9.237-1.664-11.547l-32.401-73.666   c-3.661-8.31-8.662-19.685-19.372-25.705c-11.829-6.656-25.453-4.054-37.332-1.069c-19.977,5.002-37.675,10.145-52.005,22.619   c-24.384,21.228-29.83,55.978-33.016,86.887c-2.995,29.053,0.282,63.572,9.752,102.568c8.007,32.946,20.481,65.216,37.1,95.973   c15.147,31.594,33.944,60.688,55.918,86.544c25.987,30.566,51.985,53.508,77.266,68.17c22.297,12.918,47.639,26.129,73.606,26.129   c5.345,0,10.72-0.565,16.105-1.805c18.485-4.256,33.057-15.55,48.859-28.781c9.368-7.846,19.503-17.355,21.066-30.818   c1.432-12.212-4.84-22.952-9.409-30.798L362.882,340.304z M381.185,458.745c-14.138,11.839-27.046,21.913-41.961,25.352   c-25.725,5.909-53.558-8.531-77.71-22.528c-23.658-13.715-48.203-35.436-72.97-64.58c-19.917-23.426-37.121-49.665-51.218-78.093   c-0.171-0.696-0.434-1.382-0.797-2.047c-0.595-1.059-1.18-2.128-1.755-3.197c-0.504-1.059-1.008-2.118-1.503-3.177   c-0.313-0.666-0.706-1.281-1.16-1.825c-14.723-28.105-25.846-57.451-33.117-87.361c-9.015-37.171-12.172-69.804-9.368-96.981   c2.864-27.772,7.583-58.842,27.429-76.117c11.557-10.064,27.288-14.582,45.168-19.049c9.177-2.299,18.686-4.246,25.221-0.565   c5.466,3.076,8.824,9.953,12.343,17.96l32.512,74.13c-0.262,0.151-0.585,0.313-0.958,0.494l-42.617,21.006   c-7.14,3.53-21.994,10.861-23.779,25.705c-0.948,8.047,2.521,15.116,5.052,20.29l42.445,86.453l44.633,84.396   c2.693,5.093,6.383,12.071,13.463,16.004c13.059,7.311,27.732-0.424,34.751-4.145l42.052-22.135   c1.583-0.817,2.067-0.968,1.271-0.111l40.559,69.501c4.417,7.553,8.007,14.32,7.271,20.552   C395.585,446.119,388.435,452.674,381.185,458.745z"/><path d="M303.867,256.998c12.574-6.168,17.767-21.36,11.601-33.933c-6.167-12.574-21.359-17.769-33.933-11.601   c-12.574,6.167-17.767,21.359-11.601,33.933C276.101,257.97,291.293,263.165,303.867,256.998z"/><path d="M364.778,227.123c12.574-6.167,17.767-21.359,11.601-33.931c-6.167-12.574-21.359-17.769-33.933-11.601   c-12.574,6.167-17.767,21.359-11.601,33.933C337.011,228.096,352.204,233.291,364.778,227.123z"/><path d="M437.289,163.317c-6.167-12.573-21.359-17.767-33.933-11.6c-12.574,6.167-17.767,21.359-11.601,33.931   c6.167,12.574,21.359,17.769,33.933,11.601C438.262,191.083,443.456,175.891,437.289,163.317z"/></g></svg>